<svg xmlns="http://www.w3.org/2000/svg" xmlnsXlink="http://www.w3.org/1999/xlink" width="375" height="375" zoomAndPan="magnify" viewBox="0 0 375 374.999991" preserveAspectRatio="xMidYMid meet" version="1.0">
  <defs>
    <clipPath id="1bc6c2f02a">
      <path d="M 164.175781 129 L 210.675781 129 L 210.675781 176.054688 L 164.175781 176.054688 Z M 164.175781 129 " clipRule="nonzero"/>
    </clipPath>
    <clipPath id="306a18e5d1">
      <path d="M 111.453125 128.804688 L 184.953125 128.804688 L 184.953125 246 L 111.453125 246 Z M 111.453125 128.804688 " clipRule="nonzero"/>
    </clipPath>
    <clipPath id="4ec62f306f">
      <path d="M 190.175781 128.804688 L 263.535156 128.804688 L 263.535156 246 L 190.175781 246 Z M 190.175781 128.804688 " clipRule="nonzero"/>
    </clipPath>
  </defs>
  <path fill="#10a6bf" d="M 180.71875 164.113281 L 166.234375 164.113281 C 166.148438 164.113281 166.097656 164.007812 166.160156 163.957031 L 170.5625 159.082031 C 167.597656 156.066406 165.773438 151.929688 165.773438 147.367188 C 165.773438 137.808594 173.765625 130.128906 183.441406 130.644531 C 191.761719 131.097656 198.597656 137.808594 199.207031 146.109375 C 197.539062 145.5625 195.730469 145.300781 193.859375 145.40625 C 186.59375 145.792969 180.613281 151.6875 180.140625 158.945312 C 180.027344 160.75 180.238281 162.496094 180.71875 164.113281 Z M 180.71875 164.113281 " fillOpacity="1" fillRule="nonzero"/>
  <path fill="#9dde40" d="M 209.21875 159.933594 C 209.21875 163.890625 207.632812 167.496094 205.058594 170.109375 L 208.882812 174.34375 C 208.925781 174.398438 208.894531 174.492188 208.820312 174.492188 L 194.660156 174.492188 C 194.417969 174.492188 194.175781 174.480469 193.933594 174.472656 C 187.664062 174.167969 182.441406 169.890625 180.71875 164.113281 C 180.238281 162.496094 180.027344 160.75 180.140625 158.945312 C 180.613281 151.6875 186.59375 145.792969 193.859375 145.40625 C 195.730469 145.300781 197.539062 145.5625 199.207031 146.109375 C 205.015625 148.007812 209.21875 153.472656 209.21875 159.933594 Z M 209.21875 159.933594 " fillOpacity="1" fillRule="nonzero"/>
  <g clipPath="url(#1bc6c2f02a)">
    <path fill="#174b5f" d="M 207.179688 170.109375 C 209.523438 167.242188 210.792969 163.691406 210.792969 159.933594 C 210.792969 153.28125 206.761719 147.398438 200.65625 144.964844 C 199.523438 136.308594 192.347656 129.542969 183.523438 129.070312 C 178.441406 128.796875 173.597656 130.570312 169.910156 134.070312 C 166.222656 137.566406 164.195312 142.285156 164.195312 147.367188 C 164.195312 151.695312 165.6875 155.804688 168.441406 159.082031 L 165.027344 162.851562 L 164.28125 163.535156 L 164.65625 164.574219 C 164.898438 165.238281 165.53125 165.679688 166.234375 165.679688 L 179.597656 165.679688 C 181.855469 171.613281 187.453125 175.722656 193.902344 176.035156 C 194.15625 176.046875 194.40625 176.058594 194.660156 176.058594 L 208.820312 176.058594 L 209.878906 176.015625 L 210.730469 174.125 L 210.113281 173.347656 L 207.179688 170.101562 Z M 169.5625 162.539062 L 172.726562 159.039062 L 171.6875 157.976562 C 168.890625 155.132812 167.347656 151.359375 167.347656 147.367188 C 167.347656 143.15625 169.027344 139.25 172.074219 136.359375 C 175.121094 133.472656 179.125 132 183.347656 132.222656 C 190.183594 132.589844 195.847656 137.515625 197.304688 144.027344 C 197.222656 144.019531 197.136719 144.019531 197.066406 143.996094 C 196.699219 143.945312 196.339844 143.902344 195.972656 143.882812 C 195.792969 143.871094 195.605469 143.839844 195.425781 143.839844 C 194.878906 143.816406 194.332031 143.808594 193.777344 143.839844 C 185.773438 144.269531 179.089844 150.867188 178.566406 158.851562 C 178.535156 159.417969 178.535156 159.984375 178.554688 160.542969 C 178.554688 160.710938 178.578125 160.886719 178.585938 161.054688 C 178.617188 161.457031 178.648438 161.84375 178.714844 162.234375 C 178.722656 162.335938 178.722656 162.433594 178.746094 162.539062 Z M 194.660156 172.917969 C 194.449219 172.917969 194.238281 172.917969 194.007812 172.894531 C 188.523438 172.632812 183.796875 168.914062 182.222656 163.660156 C 182.105469 163.292969 182.023438 162.914062 181.9375 162.539062 C 181.707031 161.402344 181.632812 160.226562 181.707031 159.050781 C 181.96875 155.039062 184.164062 151.453125 187.347656 149.257812 C 187.664062 149.039062 188 148.828125 188.335938 148.640625 C 189.007812 148.25 189.722656 147.9375 190.457031 147.671875 C 191.5625 147.285156 192.738281 147.042969 193.945312 146.980469 C 194.28125 146.960938 194.617188 146.960938 194.953125 146.980469 C 195.101562 146.980469 195.238281 146.980469 195.382812 147 C 195.625 147.011719 195.867188 147.03125 196.097656 147.0625 C 196.234375 147.074219 196.371094 147.09375 196.507812 147.117188 C 196.761719 147.148438 197.011719 147.199219 197.265625 147.253906 C 197.378906 147.273438 197.496094 147.296875 197.609375 147.328125 C 197.96875 147.410156 198.324219 147.503906 198.683594 147.621094 C 198.683594 147.621094 198.691406 147.621094 198.703125 147.621094 C 204.039062 149.363281 207.632812 154.324219 207.632812 159.941406 C 207.632812 163.367188 206.320312 166.582031 203.925781 169.019531 L 202.882812 170.078125 L 205.457031 172.925781 L 194.648438 172.925781 Z M 194.660156 172.917969 " fillOpacity="1" fillRule="nonzero"/>
  </g>
  <g clipPath="url(#306a18e5d1)">
    <path fill="#174b5f" d="M 138.171875 128.957031 C 137.375 128.957031 136.585938 129.035156 135.804688 129.191406 C 135.023438 129.34375 134.261719 129.574219 133.527344 129.878906 C 132.789062 130.1875 132.089844 130.558594 131.425781 131.003906 C 130.761719 131.445312 130.148438 131.949219 129.585938 132.511719 C 129.023438 133.078125 128.519531 133.691406 128.074219 134.355469 C 127.632812 135.015625 127.257812 135.71875 126.953125 136.453125 C 126.648438 137.191406 126.417969 137.949219 126.261719 138.730469 C 126.105469 139.515625 126.027344 140.304688 126.027344 141.101562 C 126.027344 141.898438 126.105469 142.6875 126.261719 143.472656 C 126.417969 144.253906 126.648438 145.011719 126.953125 145.75 C 127.257812 146.488281 127.632812 147.1875 128.074219 147.847656 C 128.519531 148.511719 129.023438 149.125 129.585938 149.691406 C 130.148438 150.253906 130.761719 150.757812 131.425781 151.199219 C 132.089844 151.644531 132.789062 152.019531 133.527344 152.324219 C 134.261719 152.628906 135.023438 152.859375 135.804688 153.015625 C 136.585938 153.167969 137.375 153.246094 138.171875 153.246094 C 138.972656 153.246094 139.761719 153.167969 140.542969 153.015625 C 141.324219 152.859375 142.085938 152.628906 142.820312 152.324219 C 143.558594 152.019531 144.257812 151.644531 144.921875 151.199219 C 145.585938 150.757812 146.199219 150.253906 146.761719 149.691406 C 147.324219 149.125 147.828125 148.511719 148.273438 147.847656 C 148.714844 147.1875 149.089844 146.488281 149.394531 145.75 C 149.699219 145.011719 149.929688 144.253906 150.085938 143.472656 C 150.242188 142.6875 150.320312 141.898438 150.320312 141.101562 C 150.320312 140.304688 150.242188 139.515625 150.085938 138.730469 C 149.929688 137.949219 149.699219 137.191406 149.394531 136.453125 C 149.089844 135.71875 148.714844 135.015625 148.273438 134.355469 C 147.828125 133.691406 147.324219 133.078125 146.761719 132.511719 C 146.199219 131.949219 145.585938 131.445312 144.921875 131.003906 C 144.257812 130.558594 143.558594 130.1875 142.820312 129.878906 C 142.085938 129.574219 141.324219 129.34375 140.542969 129.191406 C 139.761719 129.035156 138.972656 128.957031 138.171875 128.957031 Z M 138.171875 158.105469 C 137.703125 158.105469 137.234375 158.132812 136.765625 158.1875 C 136.296875 158.246094 135.835938 158.328125 135.375 158.4375 C 134.917969 158.542969 134.46875 158.679688 134.023438 158.839844 C 133.582031 159.003906 133.152344 159.191406 132.730469 159.402344 C 132.308594 159.613281 131.902344 159.847656 131.507812 160.105469 C 131.117188 160.367188 130.738281 160.648438 130.378906 160.949219 C 130.015625 161.253906 129.675781 161.578125 129.351562 161.917969 C 129.027344 162.261719 128.726562 162.621094 128.445312 163 C 128.164062 163.378906 127.90625 163.769531 127.671875 164.179688 C 127.433594 164.585938 127.222656 165.007812 127.035156 165.4375 C 126.851562 165.871094 126.6875 166.3125 126.554688 166.765625 C 126.417969 167.214844 126.308594 167.671875 126.226562 168.136719 C 126.144531 168.601562 126.089844 169.070312 126.0625 169.539062 C 126.035156 170.007812 126.035156 170.480469 126.0625 170.949219 C 126.089844 171.421875 126.144531 171.886719 126.226562 172.351562 C 126.308594 172.816406 126.414062 173.273438 126.550781 173.722656 L 130.972656 195.859375 C 131.050781 196.597656 131.199219 197.320312 131.410156 198.03125 C 131.625 198.742188 131.902344 199.425781 132.238281 200.085938 C 132.578125 200.746094 132.972656 201.371094 133.425781 201.957031 C 133.878906 202.542969 134.378906 203.085938 134.933594 203.582031 C 135.484375 204.074219 136.074219 204.515625 136.707031 204.902344 C 137.339844 205.289062 138.003906 205.617188 138.695312 205.882812 C 139.386719 206.148438 140.097656 206.347656 140.828125 206.484375 C 141.554688 206.617188 142.289062 206.6875 143.03125 206.6875 L 161.46875 206.6875 C 164.8125 206.6875 167.722656 208.964844 168.527344 212.199219 L 174.667969 236.625 L 174.667969 236.585938 C 174.707031 236.90625 174.78125 237.222656 174.882812 237.527344 C 174.984375 237.832031 175.117188 238.125 175.28125 238.40625 C 175.441406 238.6875 175.628906 238.945312 175.84375 239.1875 C 176.058594 239.429688 176.292969 239.652344 176.550781 239.847656 C 176.808594 240.042969 177.082031 240.210938 177.371094 240.351562 C 177.664062 240.492188 177.964844 240.601562 178.277344 240.679688 C 178.589844 240.761719 178.910156 240.8125 179.230469 240.828125 C 179.554688 240.84375 179.875 240.828125 180.195312 240.78125 C 180.515625 240.734375 180.824219 240.65625 181.128906 240.546875 C 181.433594 240.4375 181.722656 240.300781 182 240.132812 C 182.277344 239.964844 182.535156 239.773438 182.773438 239.554688 C 183.011719 239.335938 183.226562 239.097656 183.414062 238.835938 C 183.605469 238.574219 183.769531 238.296875 183.902344 238.003906 C 184.039062 237.710938 184.140625 237.40625 184.214844 237.089844 C 184.289062 236.777344 184.332031 236.457031 184.34375 236.136719 C 184.355469 235.8125 184.332031 235.492188 184.28125 235.171875 L 179.59375 201.429688 C 179.011719 197.289062 175.792969 194.109375 171.914062 193.28125 L 171.878906 193.15625 L 154.164062 189.238281 L 150.222656 168.867188 C 150.140625 168.132812 149.992188 167.414062 149.773438 166.707031 C 149.558594 166 149.28125 165.320312 148.941406 164.664062 C 148.601562 164.007812 148.207031 163.386719 147.753906 162.804688 C 147.300781 162.222656 146.796875 161.683594 146.246094 161.191406 C 145.695312 160.699219 145.105469 160.261719 144.476562 159.878906 C 143.84375 159.492188 143.183594 159.167969 142.496094 158.90625 C 141.804688 158.640625 141.097656 158.441406 140.371094 158.308594 C 139.644531 158.175781 138.914062 158.105469 138.171875 158.105469 Z M 258.753906 162.898438 C 259.113281 162.902344 259.46875 162.945312 259.816406 163.03125 C 260.167969 163.113281 260.503906 163.234375 260.828125 163.390625 C 261.148438 163.550781 261.449219 163.742188 261.730469 163.964844 C 262.011719 164.191406 262.265625 164.445312 262.488281 164.726562 C 262.710938 165.007812 262.902344 165.308594 263.058594 165.632812 C 263.21875 165.953125 263.335938 166.289062 263.417969 166.640625 C 263.5 166.992188 263.546875 167.34375 263.546875 167.703125 C 263.550781 168.0625 263.515625 168.417969 263.441406 168.769531 L 256.847656 201.734375 C 255.757812 207.183594 252.8125 211.835938 248.828125 215.273438 C 248.84375 215.335938 248.855469 215.394531 248.867188 215.457031 L 253.726562 239.746094 C 253.796875 240.0625 253.835938 240.382812 253.84375 240.707031 C 253.851562 241.03125 253.828125 241.355469 253.773438 241.675781 C 253.714844 241.992188 253.625 242.304688 253.507812 242.605469 C 253.390625 242.910156 253.242188 243.195312 253.066406 243.46875 C 252.886719 243.742188 252.6875 243.992188 252.457031 244.222656 C 252.230469 244.457031 251.984375 244.664062 251.714844 244.84375 C 251.445312 245.027344 251.164062 245.179688 250.863281 245.308594 C 250.5625 245.433594 250.253906 245.527344 249.9375 245.589844 C 249.617188 245.652344 249.296875 245.683594 248.972656 245.683594 C 248.648438 245.683594 248.328125 245.648438 248.007812 245.582031 C 247.691406 245.519531 247.382812 245.421875 247.085938 245.296875 C 246.785156 245.167969 246.503906 245.011719 246.234375 244.828125 C 245.96875 244.644531 245.722656 244.4375 245.496094 244.203125 C 245.269531 243.96875 245.070312 243.714844 244.894531 243.441406 C 244.71875 243.167969 244.574219 242.882812 244.457031 242.578125 C 244.339844 242.277344 244.253906 241.964844 244.199219 241.644531 L 239.882812 220.058594 C 237.679688 220.714844 235.421875 221.261719 233.03125 221.261719 L 223.796875 221.261719 L 219.71875 241.644531 C 219.664062 241.964844 219.578125 242.277344 219.460938 242.578125 C 219.34375 242.882812 219.195312 243.167969 219.023438 243.441406 C 218.847656 243.714844 218.648438 243.96875 218.421875 244.203125 C 218.195312 244.4375 217.949219 244.644531 217.679688 244.828125 C 217.414062 245.011719 217.128906 245.167969 216.832031 245.296875 C 216.535156 245.421875 216.226562 245.519531 215.90625 245.582031 C 215.589844 245.648438 215.269531 245.683594 214.945312 245.683594 C 214.617188 245.683594 214.296875 245.652344 213.980469 245.589844 C 213.660156 245.527344 213.351562 245.433594 213.054688 245.308594 C 212.753906 245.179688 212.46875 245.027344 212.199219 244.84375 C 211.933594 244.664062 211.683594 244.457031 211.457031 244.222656 C 211.230469 243.992188 211.027344 243.742188 210.851562 243.46875 C 210.675781 243.195312 210.527344 242.910156 210.410156 242.578125 C 210.289062 242.277344 210.203125 241.964844 210.144531 241.644531 C 210.089844 241.355469 210.0625 241.03125 210.070312 240.707031 C 210.078125 240.382812 210.117188 240.0625 210.191406 239.746094 L 213.910156 221.160156 C 213.320312 221.035156 212.773438 220.808594 212.269531 220.480469 C 211.765625 220.152344 211.335938 219.742188 210.980469 219.253906 C 210.628906 218.769531 210.375 218.234375 210.21875 217.652344 C 210.066406 217.070312 210.019531 216.480469 210.085938 215.878906 C 210.152344 215.28125 210.320312 214.714844 210.597656 214.179688 C 210.871094 213.644531 211.234375 213.175781 211.683594 212.777344 C 212.136719 212.375 212.640625 212.070312 213.207031 211.855469 C 213.769531 211.644531 214.351562 211.542969 214.953125 211.546875 L 219.0625 211.546875 C 219.578125 211.464844 220.09375 211.464844 220.609375 211.546875 L 233.03125 211.546875 C 240.007812 211.546875 245.953125 206.671875 247.320312 199.828125 L 253.914062 166.875 C 254.019531 166.308594 254.214844 165.78125 254.507812 165.289062 C 254.800781 164.792969 255.164062 164.367188 255.609375 164 C 256.050781 163.636719 256.542969 163.359375 257.082031 163.171875 C 257.625 162.980469 258.179688 162.890625 258.753906 162.898438 Z M 258.753906 162.898438 " fillOpacity="1" fillRule="nonzero"/>
  </g>
  <g clipPath="url(#4ec62f306f)">
    <path fill="#174b5f" d="M 236.816406 128.957031 C 237.613281 128.957031 238.402344 129.035156 239.1875 129.191406 C 239.96875 129.34375 240.726562 129.574219 241.464844 129.878906 C 242.199219 130.1875 242.902344 130.558594 243.5625 131.003906 C 244.226562 131.445312 244.839844 131.949219 245.40625 132.511719 C 245.96875 133.078125 246.472656 133.691406 246.914062 134.355469 C 247.359375 135.015625 247.730469 135.71875 248.039062 136.453125 C 248.34375 137.191406 248.574219 137.949219 248.730469 138.730469 C 248.882812 139.515625 248.960938 140.304688 248.960938 141.101562 C 248.960938 141.898438 248.882812 142.6875 248.730469 143.472656 C 248.574219 144.253906 248.34375 145.011719 248.039062 145.75 C 247.730469 146.488281 247.359375 147.1875 246.914062 147.847656 C 246.472656 148.511719 245.96875 149.125 245.40625 149.691406 C 244.839844 150.253906 244.226562 150.757812 243.5625 151.199219 C 242.902344 151.644531 242.199219 152.019531 241.464844 152.324219 C 240.726562 152.628906 240.792969 152.859375 240.792969 153.015625 C 240.792969 153.167969 240.792969 153.246094 240.792969 153.246094 Z M 236.816406 158.105469 C 237.289062 158.105469 237.757812 158.132812 238.226562 158.1875 C 238.691406 158.246094 239.15625 158.328125 239.613281 158.4375 C 240.070312 158.542969 240.523438 158.679688 240.964844 158.839844 C 241.40625 159.003906 241.839844 159.191406 242.261719 159.402344 C 242.679688 159.613281 243.089844 159.847656 243.480469 160.105469 C 243.875 160.367188 244.25 160.648438 244.613281 160.949219 C 244.972656 161.253906 245.316406 161.578125 245.636719 161.917969 C 245.960938 162.261719 246.265625 162.621094 246.546875 163 C 246.828125 163.378906 247.085938 163.769531 247.320312 164.179688 C 247.554688 164.585938 247.765625 165.007812 247.953125 165.4375 C 248.140625 165.871094 248.300781 166.3125 248.4375 166.765625 C 248.570312 167.214844 248.679688 167.671875 248.761719 168.136719 C 248.84375 168.601562 248.898438 169.070312 248.925781 169.539062 C 248.953125 170.007812 248.953125 170.480469 248.925781 170.949219 C 248.898438 171.421875 248.847656 171.886719 248.765625 172.351562 C 248.683594 172.816406 248.574219 173.273438 248.441406 173.722656 L 244.019531 195.859375 C 243.9375 196.597656 243.792969 197.320312 243.578125 198.03125 C 243.363281 198.742188 243.089844 199.425781 242.75 200.085938 C 242.414062 200.746094 242.015625 201.371094 241.566406 201.957031 C 241.113281 202.542969 240.609375 203.085938 240.058594 203.582031 C 239.507812 204.074219 238.914062 204.515625 238.28125 204.902344 C 237.648438 205.289062 236.988281 205.617188 236.296875 205.882812 C 235.601562 206.148438 234.890625 206.347656 234.164062 206.484375 C 233.433594 206.617188 232.699219 206.6875 231.957031 206.6875 L 213.523438 206.6875 C 210.179688 206.6875 207.269531 208.964844 206.460938 212.199219 L 200.324219 236.625 L 200.324219 236.585938 C 200.28125 236.90625 200.210938 237.222656 200.105469 237.527344 C 200.003906 237.832031 199.871094 238.125 199.710938 238.40625 C 199.546875 238.6875 199.359375 238.945312 199.148438 239.1875 C 198.933594 239.429688 198.699219 239.652344 198.441406 239.847656 C 198.183594 240.042969 197.910156 240.210938 197.617188 240.351562 C 197.328125 240.492188 197.023438 240.601562 196.710938 240.679688 C 196.398438 240.761719 196.082031 240.8125 195.757812 240.828125 C 195.4375 240.84375 195.117188 240.828125 194.796875 240.78125 C 194.476562 240.734375 194.164062 240.65625 193.859375 240.546875 C 193.554688 240.4375 193.265625 240.300781 192.988281 240.132812 C 192.710938 239.964844 192.457031 239.773438 192.21875 239.554688 C 191.980469 239.335938 191.765625 239.097656 191.574219 238.835938 C 191.382812 238.574219 191.222656 238.296875 191.085938 238.003906 C 190.953125 237.710938 190.847656 237.40625 190.773438 237.089844 C 190.699219 236.777344 190.65625 236.457031 190.644531 236.136719 C 190.636719 235.8125 190.65625 235.492188 190.710938 235.171875 C 190.765625 234.890625 190.820312 234.605469 190.875 234.320312 C 190.890625 234.234375 190.902344 234.148438 190.90625 234.0625 C 190.902344 233.976562 190.898438 233.890625 190.894531 233.804688 C 190.890625 233.71875 190.890625 233.632812 190.890625 233.546875 C 190.886719 233.460938 190.886719 233.375 190.886719 233.289062 C 190.882812 233.203125 190.882812 233.117188 190.882812 233.03125 C 190.878906 232.945312 190.878906 232.859375 190.878906 232.773438 C 190.875 232.6875 190.875 232.601562 190.875 232.515625 C 190.871094 232.429688 190.871094 232.34375 190.871094 232.257812 C 190.867188 232.171875 190.867188 232.085938 190.867188 232 C 190.863281 231.914062 190.863281 231.828125 190.863281 231.742188 C 190.859375 231.65625 190.859375 231.570312 190.859375 231.484375 C 190.855469 231.398438 190.855469 231.3125 190.855469 231.226562 C 190.851562 231.140625 190.851562 231.054688 190.851562 231.03125 C 190.847656 230.945312 190.847656 230.859375 190.847656 230.773438 C 190.84375 230.6875 190.84375 230.601562 190.84375 230.515625 C 190.839844 230.429688 190.839844 230.34375 190.839844 230.257812 C 190.835938 230.171875 190.835938 230.085938 190.835938 230 Z M 190.835938 230 " fillOpacity="1" fillRule="nonzero"/>
  </g>
</svg> 